<svg width="24" height="24" viewBox="0 0 24 24" fill="none" xmlns="http://www.w3.org/2000/svg">
<path d="M21.908 5.24101L14.909 2.40401C13.999 2.03501 13.001 2.03501 12.091 2.40401L2.092 6.45801C1.429 6.72701 1 7.36301 1 8.08001V17.138C1 17.855 1.429 18.492 2.092 18.76L9.091 21.598C9.546 21.782 10.023 21.874 10.5 21.874C10.977 21.874 11.454 21.781 11.909 21.598L21.908 17.543C22.571 17.273 23 16.638 23 15.922V6.86301C23 6.14701 22.571 5.51001 21.908 5.24101ZM5.25 18.42L2.655 17.368C2.562 17.331 2.5 17.237 2.5 17.137V8.51901L5.25 9.63401V18.42ZM9.75 20.242C9.718 20.231 9.687 20.219 9.655 20.206L6.75 19.028V10.241L9.75 11.457V20.241V20.242ZM3.746 7.40501L12.655 3.79301C13.2 3.57201 13.8 3.57201 14.344 3.79301L20.253 6.18901L10.499 10.143L3.745 7.40501H3.746ZM21.5 15.921C21.5 16.024 21.438 16.114 21.344 16.152L11.345 20.206C11.314 20.219 11.282 20.231 11.25 20.242V11.458L21.5 7.30201V15.921ZM13 17.708V12.159C13 11.955 13.123 11.772 13.312 11.696C13.641 11.563 14 11.805 14 12.159V17.708C14 17.912 13.877 18.095 13.688 18.171C13.359 18.304 13 18.062 13 17.708ZM15 16.897V11.348C15 11.144 15.123 10.961 15.312 10.885C15.641 10.752 16 10.994 16 11.348V16.897C16 17.101 15.877 17.284 15.688 17.36C15.359 17.493 15 17.251 15 16.897ZM19 15.275V9.72601C19 9.52201 19.123 9.33901 19.312 9.26301C19.641 9.13001 20 9.37201 20 9.72601V15.275C20 15.479 19.877 15.662 19.688 15.738C19.359 15.871 19 15.629 19 15.275ZM17 16.086V10.537C17 10.333 17.123 10.15 17.312 10.074C17.641 9.94101 18 10.183 18 10.537V16.086C18 16.29 17.877 16.473 17.688 16.549C17.359 16.682 17 16.44 17 16.086Z" fill="#424242"/>
</svg>
